<svg xmlns="http://www.w3.org/2000/svg" viewBox="0 0 100 100">
 <path d="m77.637 6.8359c-0.90625-2.4492-4.3672-2.4492-5.2734 0l-2.8477 7.6992c-0.85547 2.3086-2.6719 4.125-4.9805 4.9805l-7.6992 2.8477c-2.4492 0.90625-2.4492 4.3672 0 5.2734l7.6992 2.8477c2.3086 0.85547 4.125 2.6719 4.9805 4.9805l2.8477 7.6992c0.90625 2.4492 4.3672 2.4492 5.2734 0l2.8477-7.6992c0.85547-2.3086 2.6719-4.125 4.9805-4.9805l7.6992-2.8477c2.4492-0.90625 2.4492-4.3672 0-5.2734l-7.6992-2.8477c-2.3086-0.85547-4.125-2.6719-4.9805-4.9805z"/>
 <path d="m43.281 31.086c-1.6094-4.3555-7.7656-4.3555-9.3789 0l-4.5312 12.242c-1.5195 4.1094-4.7539 7.3438-8.8594 8.8633l-12.246 4.5312c-4.3555 1.6094-4.3555 7.7695 0 9.3789l12.246 4.5312c4.1055 1.5195 7.3398 4.7578 8.8594 8.8633l4.5312 12.242c1.6133 4.3555 7.7695 4.3555 9.3789 0l4.5312-12.242c1.5195-4.1055 4.7578-7.3438 8.8633-8.8633l12.242-4.5312c4.3555-1.6094 4.3555-7.7695 0-9.3789l-12.242-4.5312c-4.1055-1.5195-7.3438-4.7578-8.8633-8.8633z"/>
</svg>
